<svg width="226" height="226" viewBox="0 0 226 226" fill="none" xmlns="http://www.w3.org/2000/svg">
<g filter="url(#filter0_d_231_45)">
<rect x="15" y="17" width="184" height="184" rx="25" fill="white"/>
<rect x="15.5" y="17.5" width="183" height="183" rx="24.5" stroke="#EAEAEA" stroke-opacity="0.56"/>
<path d="M53.5584 133.022L99.9979 63.3628C102.282 60.8252 108.068 57.2724 112.94 63.3628L133.115 121.222C134.51 123.887 134.866 129.596 125.121 131.119H97.3334C94.7957 130.358 90.0248 127.312 91.2429 121.222L102.662 105.235C103.043 104.22 104.718 102.189 108.372 102.189C112.027 102.189 134.764 102.189 145.676 102.189C149.305 102.189 180.518 139.937 145.676 158.145H66.1199C60.6639 156.876 50.5132 150.075 53.5584 133.022Z" stroke="#F4CB08" stroke-width="6.09043"/>
</g>
<defs>
<filter id="filter0_d_231_45" x="0.1" y="0.1" width="225.8" height="225.8" filterUnits="userSpaceOnUse" color-interpolation-filters="sRGB">
<feFlood flood-opacity="0" result="BackgroundImageFix"/>
<feColorMatrix in="SourceAlpha" type="matrix" values="0 0 0 0 0 0 0 0 0 0 0 0 0 0 0 0 0 0 127 0" result="hardAlpha"/>
<feMorphology radius="4" operator="dilate" in="SourceAlpha" result="effect1_dropShadow_231_45"/>
<feOffset dx="6" dy="4"/>
<feGaussianBlur stdDeviation="8.45"/>
<feComposite in2="hardAlpha" operator="out"/>
<feColorMatrix type="matrix" values="0 0 0 0 0 0 0 0 0 0 0 0 0 0 0 0 0 0 0.03 0"/>
<feBlend mode="normal" in2="BackgroundImageFix" result="effect1_dropShadow_231_45"/>
<feBlend mode="normal" in="SourceGraphic" in2="effect1_dropShadow_231_45" result="shape"/>
</filter>
</defs>
</svg>
